<?xml version="1.0" encoding="utf-8"?>
<!-- Generator: Adobe Illustrator 26.2.1, SVG Export Plug-In . SVG Version: 6.00 Build 0)  -->
<svg version="1.1" id="Layer_1" xmlns="http://www.w3.org/2000/svg" xmlns:xlink="http://www.w3.org/1999/xlink" x="0px" y="0px"
	 viewBox="0 0 200 200" style="enable-background:new 0 0 200 200;" xml:space="preserve">
<style type="text/css">
	.st0{fill:#FFFFFF;}
	.st1{fill:#6FC9F4;}
	.st2{fill:#46AB46;}
	.st3{fill:none;}
</style>
<g>
	<path class="st0" d="M189.2,62.7c-4.9-11.6-11.9-21.9-20.8-30.9c-8.9-8.9-19.3-15.9-30.9-20.8c-12-5.1-24.7-7.6-37.8-7.6
		C86.7,3.4,74,6,62,11.1C50.4,16,40.1,23,31.1,31.9S15.2,51.2,10.3,62.7c-5.1,12-7.6,24.7-7.6,37.8c0,13.1,2.6,25.8,7.6,37.8
		c4.9,11.6,11.9,21.9,20.8,30.9c8.9,8.9,19.3,15.9,30.9,20.8c12,5.1,24.7,7.6,37.8,7.6c13.1,0,25.8-2.6,37.8-7.6
		c11.6-4.9,21.9-11.9,30.9-20.8c8.9-8.9,15.9-19.3,20.8-30.9c5.1-12,7.6-24.7,7.6-37.8S194.3,74.7,189.2,62.7z M136.6,18.9
		C136.6,18.9,136.6,18.9,136.6,18.9L136.6,18.9C136.6,18.9,136.6,18.9,136.6,18.9z M62.9,18.9C62.9,18.9,62.9,18.9,62.9,18.9
		C62.9,18.9,62.9,18.9,62.9,18.9L62.9,18.9z M32,42C32,42,32,42,32,42C32,42,32,42,32,42L32,42z M166.8,159.9L166.8,159.9
		L166.8,159.9L166.8,159.9z"/>
	<circle class="st1" cx="99.8" cy="100.5" r="86"/>
	<path class="st2" d="M183.4,122.7c-0.7-0.4-2-1.2-2.8-1.1c-1.4,0.2-2.7,1.2-3.3,2.5c-0.3,0.6-0.4,1.4-0.8,2c-1,1.6-3.3,1.7-4.9,2.8
		c-1.5,1-2.3,2.9-3,4.7c-0.3,0.9-0.7,1.8-0.8,2.8c-0.1,0.9,0.1,1.7,0.3,2.6c0.7,3.5,1.8,8.2,2.6,11.7c3-4.4,5.4-8.3,8.2-14.5
		C181.8,130,183.2,123.5,183.4,122.7z"/>
	<path class="st2" d="M15.1,100.8c3.8-3.6,5.9-9,5.8-14.3c-0.1-3.4-1-7.3,1.1-9.9c1.2-1.5,3.1-2.2,4.8-3.2c4-2.5,6.4-7.4,6-12.2
		c-0.2-2-0.8-3.9-1.4-5.8c-0.5-1.6-0.7-5.1-1.3-6.5c-10.4,14.3-16.3,32-16.3,51.2c0,0.6,0,1.3,0,1.9
		C14.1,101.7,14.7,101.2,15.1,100.8z"/>
	<path class="st2" d="M181.8,82.4c0.2-1.1,0.4-2.3,0.4-3.4c0-0.7,1.2-1.7,1.2-2.4C175.8,50,155.8,28.2,130,18.9
		c-3.9,0.1-9.5,2.6-11.4,6.2c-1,1.9-1.5,4.3-3.2,5.7c-3.3,2.6-7.6,0.4-11.1-0.7c-2.6-0.9-5.6-1.2-7.8,0.5c-1.8,1.5-8.1,4.7-9.6,5.2
		c-1.7,0.6-2.6,2.4-3.5,4c-1.9,3.4-3.6,2.4-6.7,3.8c-0.9,0.5-2.5-0.6-3.3-1.2c-3-2.2-5.4-6.8-8.1-0.4c0,0.3,0.1,0.6,0.1,0.9
		c0.1,1.8-0.6,3.7-0.5,5.6c0,0.8,0.2,1.9,1,2.3c0.8,0.4,1.7-0.1,2.1-0.9c0.6-1.4,0.3-3.1,0.6-4.5c-0.3,1.2,0.5,2.4,1.1,3.4
		c1.1,1.7,1.6,3.3,1,5.3c-0.6,2.1-1.9,4.2-4.1,4.7c-1.4,0.3-3.2,0.1-4,1.3c-0.6,1-2.4,7.6-2.3,8.5c0.5,2.8,4.4,3,6.4,2.5
		c3.8-1,3-5.2,6.1-6.2c1.1-0.3,2.4-0.3,3.4-0.7c2.6-1.1,3.3-4.5,5.3-6.5c1.7-1.7,4.2-2.2,6.5-2.4c2.2-0.2,8.2,3.8,8.6,5.4
		c0.7,2.9,0.4,6.1-0.6,8.9c-0.2,0.6-0.5,1.2-0.2,1.7c0.6,1.3,2.4,0.2,3.3-1c2.2-3.1,4.5-7.2,2.7-10.6c-1-1.9-3.3-3.6-2.6-5.7
		c0.5-1.5,2.5-1.9,3.9-1.4c1.4,0.6,2.4,1.9,3.3,3.1c1.5,2,5.4,7.2,6.1,7.5c0.7,0.2,1.6-0.1,1.7-0.8c1.7,3.2,4.5,5.7,7.7,7.2
		c1.9,0.9,5.4,5,5.7,5.6c0.6,1.2,1.9,1.7,2.8,2.6c0.9,0.9,1,3-0.3,3.2c-4.7-2.2-10.2-2.7-15.2-1.3c-0.9,0.3-2,0.6-2.8,0.1
		c-0.5-0.3-0.8-0.8-1.2-1.2c-1.8-2.2-4.9-3.2-7.6-2.6c-2.8,0.7-5.1,2.9-8,2.9c-4.1-0.1-6.7-4.8-10.5-6.5c-3.1-1.3-6.6-0.5-9.7,0.7
		c-3.4,1.3-6.8,3.4-8.3,6.8c-1.1,2.3-6.8,10.6-8.3,13c-3.6,5.7,1.4,12,4,16.9c1.9,3.6,3.1,8.1,7,10c3,1.4,6.5,0.5,9.8-0.2
		c9.9-2.1,18.3,21.9,20.1,25.8c1.9,4.2,4.1,8.3,5.1,12.9c0.2,1,0.4,2,0.5,3.1c0,0.1,0.4,4.3,1,5.2c0.3,0.7,0.7,1.4,1.4,1.5
		c0.7,0.1,1.3-0.2,1.9-0.6c0.1-0.1,0.3-0.2,0.4-0.3c0,0,0,0,0,0c2.5-1.7,6.1-5.8,6.1-5.8h0c0.7-0.7,1.4-1.5,2-2.2
		c3.6-3.7,10.7-11.4,9.1-17.3c-0.3-1.1-1.1-2.1-1.8-3.1c-4-6.4-0.8-13,3.2-18.4c4.1-5.4,13.1-20.8,14.3-22.9
		c2.2-4.1,10.9-6.9,8.4-12.8c-0.8-1.9-2.8-3-4.7-3.5c-1.9-0.6-3.9-0.8-5.8-1.7c-3.4-1.6-5.5-5.5-5.2-9.3c0-0.2,0.1-0.5,0.2-0.6
		c0.3-0.3,0.7-0.2,1-0.1c1.9,0.8,3,2.6,4.9,3.4c2.1,1,9.6,4,11.4,4.7c1.8,0.7,11.9,0.5,13.8,2.7c1.1,1.3,1.4,3,2.3,4.4
		c1.4,2,6.8,9.4,8,11.3c0.8,1.2,2.3,2,3.5,1.3c0.9-0.5,1.1-1.7,1.2-2.7c0.3-3.6-0.7-7.3-0.4-10.9C181.7,83.2,181.8,82.8,181.8,82.4z
		 M136.2,84.4c1.2,1.7,2.2,3.5,2.9,5.4c0.3,0.9,0.6,1.9,0.6,2.9c0,0.4-0.2,0.8-0.5,0.9c-0.2,0.1-0.3,0-0.5,0
		c-1.5-0.3-2.9-1.3-3.8-2.5c-1-1.2-1.6-2.7-2.1-4.2c-0.2-0.5-0.3-1.1-0.4-1.6c-0.3-1.3,0.9-2.6,2.2-2.3c0,0,0.1,0,0.1,0
		C135.4,83.3,135.8,83.8,136.2,84.4z"/>
	<path d="M184.3,64.8c-4.6-10.9-11.2-20.7-19.7-29.2c-8.4-8.4-18.2-15-29.2-19.7c-11.3-4.8-23.3-7.2-35.7-7.2
		c-12.4,0-24.4,2.4-35.7,7.2c-10.9,4.6-20.7,11.2-29.2,19.7c-8.4,8.4-15,18.2-19.7,29.2c-4.8,11.3-7.2,23.3-7.2,35.7
		s2.4,24.4,7.2,35.7c4.6,10.9,11.2,20.7,19.7,29.2c8.4,8.4,18.2,15,29.2,19.7c11.3,4.8,23.3,7.2,35.7,7.2c12.4,0,24.4-2.4,35.7-7.2
		c10.9-4.6,20.7-11.2,29.2-19.7c8.4-8.4,15-18.2,19.7-29.2c4.8-11.3,7.2-23.3,7.2-35.7S189.1,76.1,184.3,64.8z M99.8,186.5
		c-47.5,0-86-38.5-86-86s38.5-86,86-86s86,38.5,86,86S147.3,186.5,99.8,186.5z"/>
</g>
<rect class="st3" width="200" height="200"/>
</svg>
